<?xml version="1.0" encoding="UTF-8"?>
<!-- Created with Inkscape (http://www.inkscape.org/) -->
<svg width="342.18" height="427" version="1.1" viewBox="0 0 342.18 427" xmlns="http://www.w3.org/2000/svg">
 <g transform="translate(-1498.9 -134.02)">
  <path d="m1626.1 555.29c-7.6018-11.285-18.217-29.306-23.678-40.195l-5.5404-11.047v-14.017c0-7.7092 0.3673-14.017 0.8162-14.017s4.3155 5.8102 8.5923 12.911c5.8046 9.6379 8.45 15.234 10.434 22.073 1.4617 5.0388 3.1077 9.2412 3.6577 9.3385 0.5716 0.10121 1.1275-3.0089 1.2976-7.26 0.2568-6.4184-0.2911-9.3634-4-21.5l-4.2976-14.063-20.528-21c-31.939-32.673-64.079-68.623-79.72-89.169-8.4052-11.042-14.252-19.496-14.252-20.608 0-0.53899 1.5048-0.6632 3.5-0.28891 1.925 0.36113 3.5 0.4044 3.5 0.0961 0-0.30825-1.35-2.9525-3-5.8762-3.5979-6.3752-3.8802-12.5-1.4377-31.196 7.0902-54.271 28.689-104.6 61.779-143.96 9.2984-11.059 20.424-22.067 21.359-21.133 0.3313 0.33139-0.9991 3.0147-2.9567 5.963-5.7861 8.7146-9.8185 17.503-10.44 22.754-0.3405 2.8746-0.1841 4.9153 0.3768 4.9153 0.5274 0 3.4851-3.7125 6.5727-8.25 6.8253-10.03 30.288-35.75 32.613-35.75 1.3803 0 2.1266 2.6795 4.2478 15.25 1.4153 8.3875 2.4021 15.7 2.193 16.25s-2.6446 2.5396-5.4121 4.4214c-6.1523 4.1832-10.895 9.758-10.895 12.806 0 2.8917 0.7731 2.8602 3.9453-0.1607 1.4051-1.3381 5.2168-4.0312 8.4706-5.9848 6.7114-4.0296 8.5841-3.595 8.5841 1.992 0 2.8474-0.6879 3.8021-4.75 6.5931-28.692 19.713-39.875 57.756-29.227 99.43 4.4541 17.433 16.237 34.384 29.399 42.295l5.6442 3.3922 7.7168-3.5833c23.921-11.108 54.096-11.106 78.402 5e-3l7.7299 3.5334 4.7923-2.7998c10.939-6.391 21.198-18.923 26.555-32.44 12.712-32.076 9.1256-69.992-8.8878-93.955-4.6907-6.24-14.68-15.316-19.046-17.305-1.8299-0.83376-2.3283-1.8566-2.3283-4.7779 0-5.985 1.7645-6.4741 8.5841-2.3796 3.2538 1.9536 7.1487 4.7264 8.6555 6.1619 3.0852 2.9393 4.2988 2.5371 3.3808-1.1206-0.8753-3.4874-4.7225-7.764-10.547-11.724-2.7503-1.8699-5.1846-3.8498-5.4096-4.3998-0.8473-2.0713 4.634-31.5 5.8671-31.5 2.1731 0 25.773 25.302 32.45 34.79 3.5646 5.0656 6.8857 9.2101 7.3801 9.2101 1.61 0-0.018-8.5712-2.775-14.606-1.4805-3.2414-4.5297-8.7194-6.7759-12.173-2.2462-3.4539-3.7682-6.5956-3.3823-6.9816 1.1725-1.1725 20.224 19.43 29.938 32.375 30.94 41.231 51.618 97.199 54.272 146.89 0.5817 10.895 0.5577 11.056-2.5252 16.852-1.7119 3.2184-3.1125 6.0512-3.1125 6.2953s1.6165 0.14051 3.5922-0.23013l3.5921-0.6739-1.7387 3.3786c-7.5155 14.604-51.859 66.023-92.761 107.56l-19.874 20.184-4.4154 13.816c-3.9229 12.275-4.3864 14.708-4.1552 21.816 0.1431 4.4 0.6667 8 1.1635 8s2.125-4.275 3.6183-9.5c2.1108-7.386 4.4194-12.282 10.374-22 4.2127-6.875 8.097-12.65 8.6318-12.833 0.5991-0.20541 0.9723 5.0097 0.9723 13.589v13.922l-4.8584 9.9113c-7.6717 15.651-27.178 47.412-29.119 47.412-0.68 0-1.0225-13.746-1.0225-41.043v-41.043l4.3352-4.7072c44.038-47.817 92.653-101.55 92.244-101.96-0.2907-0.29069-2.6774 1.2055-5.3039 3.3248-12.888 10.4-43.268 36.232-55.465 47.161-7.5294 6.7472-14.301 12.268-15.047 12.268-1.3607 0-8.7631-6.984-8.7631-8.2678 0-0.37593 5.3178-5.982 11.817-12.458 25.387-25.295 45.454-55.064 53.671-79.621 1.4441-4.3156 2.4778-9.0406 2.2971-10.5-0.2843-2.2957-0.8288-1.6844-4.0376 4.5327-9.1476 17.724-21.953 37.541-33.091 51.212-8.9233 10.952-21.101 22.853-40.157 39.241-22.681 19.506-27.398 24.431-28.187 29.425-0.342 2.1644-1.1148 4.266-1.7172 4.67-0.6025 0.40408-5.6921 0.74158-11.31 0.75-11.253 0.0169-12.285-0.54946-12.285-6.7416 0-2.3066-1.6618-4.4949-8.25-10.864-4.5375-4.3867-12.975-11.983-18.75-16.88-18.846-15.982-27.111-23.81-35.885-33.985-14.308-16.592-26.353-34.548-37.066-55.256-6.7749-13.096-7.3532-8.3684-1.0793 8.8223 8.4481 23.148 31.762 56.301 54.929 78.109 5.0056 4.712 9.101 8.8458 9.101 9.1861 0 1.3748-7.336 8.6246-8.7271 8.6246-0.8219 0-7.1821-5.1029-14.134-11.34-12.425-11.148-48.533-41.922-56.943-48.531-2.3587-1.8538-4.5114-3.1478-4.7836-2.8756-0.2723 0.27224 1.886 3.1328 4.7961 6.3569 7.057 7.8183 80.839 88.481 86.969 95.079l4.8217 5.1901v40.501c0 24.366-0.3767 40.734-0.9455 41.085-0.5201 0.3214-2.6961-2.0145-4.8357-5.191zm55.502-136.92c29.82-20.261 51.266-41.062 63.713-61.797 1.9614-3.2676 3.5662-6.385 3.5662-6.9274 0-0.54244-6.511 5.4288-14.469 13.269-7.9578 7.8406-14.933 13.969-15.5 13.618-0.6284-0.38838-1.0311-6.0822-1.0311-14.578 0-13.649-1.165-18.197-2.4825-9.691-2.5662 16.568-9.3631 31.243-19.086 41.208-6.7678 6.9364-23.368 18.542-26.521 18.542-2.3557 0-11.409-5.6876-20.04-12.59-12.875-10.297-20.641-23.816-24.529-42.705-0.9854-4.7875-2.1403-8.7045-2.5664-8.7045s-0.7747 6.2734-0.7747 13.941c0 8.496-0.4027 14.19-1.0311 14.578-0.5672 0.35051-7.5422-5.7778-15.5-13.618-7.9579-7.8406-14.469-13.807-14.469-13.26 0 1.3696 6.5551 12.039 12 19.532 6.066 8.3473 22.58 24.847 33.011 32.982 14.857 11.587 31.412 22.794 33.711 22.82 1.2216 0.0139 6.6216-2.9645 12-6.6187z" fill="#eceff4"/>
 </g>
</svg>
