<svg id="Layer_1" xmlns="http://www.w3.org/2000/svg" viewBox="0 0 1841.3 485.5" width="1000" height="264">
  <path fill="#fff" d="M852.7.8c1.9 1.1 1.9 4.5 1.9 213.3 0 137.1.4 214.7 1 219.2 2.5 16.7 13.5 29.3 28.3 32 3.3.6 3.7 1.1 3.7 3.6v2.9h-179V469c0-2.4.6-3 4.8-4.4 9.8-3.5 17.1-11 20.8-21.2 1.8-4.9 1.9-12.4 2.2-186.1.2-128.2 0-182.9-.8-187.4-2.9-16.9-13.5-27.1-28.2-27.1-3.7 0-3.8-.1-3.8-3.4V36l59.8-14.7c32.8-8.1 65.6-16.2 72.7-18C851.5-.6 850.3-.4 852.7.8zM222.1 25.3c32.7 3.7 65.1 11.9 93.8 23.6 5.3 2.2 5.7 2.6 5.2 4.9-.9 3.6-33.7 115.4-33.9 115.8-.2.1-2.9-.1-6.2-.4l-6-.6-2.8-13.7c-11.1-54-29.1-89.3-53.7-105.7-14.7-9.7-27.8-12.9-49.8-12.1-16.6.6-26.2 2.7-37.5 8.1C107.7 56.6 95.9 78 98.8 104c1.6 14.9 8.1 27.4 20.3 39.4 14.6 14.2 36.6 26.3 85 46.9 59 25.1 83.6 39.5 105.1 61.7 18 18.5 27.7 37.6 31.9 62.8 2.5 14.9 1.7 38.6-1.9 53-16.6 66-78.4 110.9-161.5 117.2-17.8 1.3-52.4.1-76.1-2.7-34.7-4.1-69.2-12.6-93.3-23-7.6-3.3-8.6-4-8.2-5.9.3-1.1 6.5-31.3 13.9-66.9 7.4-35.7 13.6-65.1 13.9-65.3.3-.3 3-.2 6.2.3l5.6.8 3.9 15c16.9 65.8 44.5 107.8 82.4 125.5 13 6.1 21.9 8.1 39.6 8.7 12.1.4 17.4.2 24.5-1.2 51.4-9.6 72.1-53.9 43.1-92.2-7.4-9.7-21.1-20.8-38.6-31.1-5.2-3.1-30.4-16.1-56-28.9-58.6-29.3-73.5-38.4-93.7-57.7-27.3-26-39.3-53-39.3-88.5 0-78.2 57.3-136.2 145-147 4.7-.6 10.5-1.3 13-1.5 8.7-.8 45.6.4 58.5 1.9zM1058.6 118.8v66h62v14h-62v94.3c0 81.5.2 95.1 1.5 100.2 5.4 20.5 21 30.4 39.5 24.9 7.2-2.1 11.5-5 18.1-12.2l5.7-6.1 3.6 2.5 3.7 2.5-3.2 5.7c-13.6 24.4-39.6 49.3-63.2 60.6-40.2 19.3-83.7 13.5-107-14.2-5.5-6.5-11.6-18.6-14.3-28.2-1.7-6.1-1.9-13.7-2.2-117.2l-.3-110.7-15.7-.3-15.7-.3-.3-3.1c-.3-3-.1-3.1 9-6.7 45.5-18 97.9-69.4 124-121.6 3.7-7.4 6.8-14.1 6.8-14.8 0-.9 1.6-1.3 5-1.3h5v66zM1442.6 111.8v42h71v34h-71v110.5c0 78.3.3 111.9 1.1 115.7 3.7 16.9 14.4 26.8 32.2 29.9 10.3 1.7 33.6.2 41-2.6 1.6-.7 1.7.5 1.7 15.8v16.5l-7.2 1.6c-19.6 4.2-44.3 4.7-59.8 1.2-24.7-5.7-38.6-19.8-44.2-44.6-2.1-9.4-2.2-11.2-2.5-126.8l-.4-117.2h-61.9v-34h62V86l18.3-8c10-4.4 18.5-8.1 19-8.1.4-.1.7 18.8.7 41.9zM1641 285.3c29.7 72.2 54.2 131.2 54.5 131 .4-.2 24-59.3 52.6-131.4l52-131.1h41.2l-62.2 157.7-62.2 157.8-21.4.3-21.4.2-53.5-131.7c-29.4-72.5-58.3-143.6-64.2-158l-10.6-26.3h41.3l53.9 131.5zM696.5 428.4l-3-1.8-4.8 4.5c-6.1 5.7-10.1 7.7-16.5 8.4-7.2.6-13.3-2.6-16.3-8.7l-2.3-4.4v-79.2c0-51-.4-82-1.1-87.1-2.3-16.9-10.6-35-21.4-47.1-16.8-18.7-43.9-31.4-78.5-36.7-10-1.6-49.9-2.8-59.5-1.9-46.8 4.5-72.1 13.6-89.8 32.2-17.6 18.6-19 47.2-3.1 64.3 8.8 9.4 19.8 13.9 33.8 13.9 26.2 0 46.7-16.7 53.6-43.4 1-4.1 2.6-14.8 3.4-23.8 1.7-17.7 2.5-21.6 5.5-26.5 2.9-4.7 7.4-6.7 15.1-6.7 10.5 0 16.7 4.7 20.2 15.4 2.1 6.2 2.2 8.4 2.6 52.5l.3 46-16.3 4.4c-43.6 11.8-78.1 25.9-102.3 41.9-11.7 7.7-28.4 23.9-33.4 32.4-8.1 14-11.7 28.4-10.8 43.8 1.1 17.3 6.7 30.2 18.2 41.5 15.6 15.4 36.1 22.5 61 21.2 28.7-1.6 60.3-15 81.8-34.7 3.7-3.5 6.9-6.1 7.1-5.9s2.2 4.1 4.6 8.7c5.8 11.2 13.5 18.9 24.3 24.2 12 5.8 21.4 7.4 40.6 6.7 19-.6 30.2-3.2 45.8-10.7 12.6-6 20.6-11.5 29.1-20.2 6.5-6.6 15.2-18.2 15.2-20.3 0-.6-1.4-1.9-3.1-2.9zm-164.9 3.1c-10.3 5.2-23.6 5-34.2-.3-14.9-7.5-22.9-26-21.5-49.4 2-32.6 19.8-56.6 51.6-69.7 3.1-1.2 5.9-2.3 6.3-2.3.3 0 .9 25.1 1.2 55.7.3 30.7.6 57.6.8 59.8.3 3.8.1 4.1-4.2 6.2zM1268.1 330.2c3.3.9 10.3 3.7 15.5 6.3 8 4 11 6.2 19.1 14.3 8.6 8.5 10.2 10.7 14.7 20 5.8 12 8.2 21.9 8.2 34 0 37.6-26.5 69.4-63.8 76.6-33 6.3-66.4-10.9-81.8-42.1-6.3-12.9-7.9-19.6-7.9-34.5 0-15.1 1.6-21.7 8.2-35 4-8 6.2-11 14.3-19 7.4-7.5 11.3-10.5 17.5-13.7 8.7-4.4 15.9-7 23.3-8.3 6.8-1.3 25.7-.4 32.7 1.4z"/>
</svg>
