<?xml version="1.0" encoding="UTF-8"?>
<!-- Created with Inkscape (http://www.inkscape.org/) -->
<svg width="74.767mm" height="13.651mm" version="1.1" viewBox="0 0 74.767 13.651" xmlns="http://www.w3.org/2000/svg">
 <g transform="translate(-46.258 -116.88)">
  <g transform="matrix(.44 0 0 .44 49.475 39.872)">
   <g transform="translate(22.511 6.8027)">
    <g transform="translate(-1.1324 30.891)">
     <g stroke-width=".60132" aria-label="h  melab">
      <path d="m-10.331 154.56v13.232h-3.6017v-13.115q0-3.1123-1.2136-4.6587-1.2136-1.5464-3.6408-1.5464-2.9166 0-4.6 1.8596t-1.6834 5.0698v12.391h-3.6213v-30.458h3.6213v11.94q1.2919-1.977 3.034-2.9557 1.7617-0.97872 4.0519-0.97872 3.7779 0 5.7157 2.3489 1.9379 2.3294 1.9379 6.8706z"/>
      <path d="m39.408 150.07q1.3506-2.4272 3.2298-3.5821t4.4238-1.1549q3.4255 0 5.2851 2.4077 1.8596 2.3881 1.8596 6.8119v13.232h-3.6213v-13.115q0-3.1515-1.1157-4.6783-1.1157-1.5268-3.4059-1.5268-2.7991 0-4.4238 1.8596t-1.6247 5.0698v12.391h-3.6213v-13.115q0-3.1711-1.1157-4.6783-1.1157-1.5268-3.4451-1.5268-2.76 0-4.3847 1.8791-1.6247 1.8596-1.6247 5.0502v12.391h-3.6213v-21.923h3.6213v3.406q1.2332-2.0162 2.9557-2.9753 1.7225-0.95915 4.0911-0.95915 2.3881 0 4.0519 1.2136 1.6834 1.2136 2.486 3.5234z"/>
      <path d="m80.142 155.93v1.7617h-16.56q0.23489 3.7191 2.2315 5.6766 2.0162 1.9379 5.5983 1.9379 2.0749 0 4.0128-0.50894 1.9574-0.50893 3.8757-1.5268v3.406q-1.9379 0.82212-3.9736 1.2528t-4.1302 0.43064q-5.2459 0-8.3191-3.0536-3.0536-3.0536-3.0536-8.2604 0-5.383 2.897-8.5344 2.9166-3.1711 7.8493-3.1711 4.4238 0 6.9881 2.8579 2.5838 2.8383 2.5838 7.7319zm-3.6017-1.057q-0.03915-2.9557-1.6638-4.7174-1.6051-1.7617-4.2672-1.7617-3.0145 0-4.8349 1.703-1.8008 1.703-2.0749 4.7957z"/>
      <path d="m86.054 137.33h3.6017v30.458h-3.6017z"/>
      <path d="m107.15 156.77q-4.3651 0-6.0485 0.9983-1.6834 0.99829-1.6834 3.4059 0 1.9183 1.2528 3.0536 1.2723 1.1158 3.4451 1.1158 2.9949 0 4.7957-2.114 1.8204-2.1336 1.8204-5.657v-0.80255zm7.1838-1.4876v12.508h-3.6017v-3.3276q-1.2332 1.9966-3.0732 2.9557-1.84 0.93958-4.5021 0.93958-3.3668 0-5.3634-1.8792-1.977-1.8987-1.977-5.0698 0-3.6996 2.4664-5.5787 2.486-1.8791 7.3991-1.8791h5.0502v-0.35234q0-2.486-1.6442-3.8366-1.6247-1.3702-4.5804-1.3702-1.8791 0-3.6604 0.45021-1.7813 0.45022-3.4255 1.3506v-3.3276q1.977-0.7634 3.8366-1.1353 1.8596-0.39149 3.6213-0.39149 4.7566 0 7.1055 2.4664t2.3489 7.4774z"/>
      <path d="m137.5 156.85q0-3.9736-1.6442-6.2247-1.6247-2.2706-4.4826-2.2706-2.8579 0-4.5021 2.2706-1.6247 2.251-1.6247 6.2247t1.6247 6.2442q1.6442 2.2511 4.5021 2.2511 2.8579 0 4.4826-2.2511 1.6442-2.2706 1.6442-6.2442zm-12.254-7.6536q1.1353-1.9574 2.8579-2.897 1.7421-0.95915 4.1498-0.95915 3.9932 0 6.4791 3.1711 2.5055 3.171 2.5055 8.3387 0 5.1676-2.5055 8.3387-2.486 3.1711-6.4791 3.1711-2.4076 0-4.1498-0.93958-1.7226-0.95914-2.8579-2.9166v3.2885h-3.6213v-30.458h3.6213z"/>
     </g>
     <rect x="3.6868" y="137.33" width="3.308" height="14.523"/>
    </g>
    <path d="m8.4231 177.31a10.589 10.589 0 0 1 6.3331 11.848 10.589 10.589 0 0 1-10.385 8.5229 10.589 10.589 0 0 1-10.385-8.5229 10.589 10.589 0 0 1 6.3331-11.848" fill-opacity="0" stroke="#000" stroke-width="3.1409"/>
   </g>
  </g>
 </g>
</svg>
