<?xml version="1.0" standalone="no"?>
<!DOCTYPE svg PUBLIC "-//W3C//DTD SVG 20010904//EN"
 "http://www.w3.org/TR/2001/REC-SVG-20010904/DTD/svg10.dtd">
<svg version="1.0" xmlns="http://www.w3.org/2000/svg"
 width="854.000000pt" height="854.000000pt" viewBox="0 0 854.000000 854.000000"
 preserveAspectRatio="xMidYMid meet">
<metadata>
Created by potrace 1.14, written by Peter Selinger 2001-2017
</metadata>
<g transform="translate(0.000000,854.000000) scale(0.100000,-0.100000)"
fill="#000000" stroke="none">
<path d="M2942 8412 c-70 -70 -149 -154 -177 -186 -27 -32 -59 -68 -71 -80
-44 -45 -175 -205 -238 -291 -36 -49 -69 -94 -73 -100 -5 -5 -23 -29 -41 -53
-19 -23 -38 -39 -44 -36 -9 6 -6 92 5 139 18 75 95 241 152 330 126 195 136
236 39 152 -80 -69 -241 -237 -336 -352 -18 -21 -40 -46 -48 -55 -8 -9 -37
-45 -65 -81 -27 -35 -53 -65 -57 -67 -5 -2 -8 -8 -8 -13 0 -8 -14 -27 -45 -63
-5 -6 -30 -40 -55 -76 -24 -36 -59 -87 -78 -114 -39 -56 -147 -229 -187 -301
-15 -27 -41 -72 -56 -100 -29 -51 -153 -298 -163 -325 -3 -8 -10 -22 -15 -30
-10 -16 -61 -128 -61 -134 0 -2 -8 -21 -17 -42 -9 -22 -17 -41 -18 -44 -1 -3
-7 -18 -14 -35 -59 -147 -123 -328 -156 -440 -14 -49 -32 -110 -40 -135 -23
-75 -77 -296 -90 -365 -2 -11 -7 -31 -10 -45 -3 -14 -8 -34 -9 -45 -2 -11 -6
-31 -9 -45 -4 -14 -9 -41 -12 -60 -2 -19 -7 -46 -10 -60 -7 -36 -36 -228 -41
-275 -2 -22 -7 -67 -11 -100 -9 -82 -9 -323 0 -363 4 -18 11 -41 16 -50 5 -9
15 -30 22 -47 7 -16 23 -46 35 -65 42 -71 42 -72 -34 -68 -81 3 -82 -2 -26
-87 21 -32 44 -66 49 -74 17 -28 274 -371 285 -381 3 -3 23 -27 45 -55 22 -27
49 -61 61 -75 12 -14 56 -65 97 -115 42 -49 87 -103 102 -120 14 -16 47 -54
73 -84 26 -30 56 -64 67 -77 11 -12 45 -50 75 -85 30 -34 66 -74 80 -89 14
-15 52 -58 85 -95 33 -37 80 -88 103 -114 24 -25 67 -71 94 -101 51 -56 237
-255 316 -339 52 -55 512 -529 628 -647 78 -79 83 -86 109 -171 14 -48 29 -97
33 -108 3 -11 7 -23 8 -27 1 -5 3 -10 4 -13 1 -3 3 -8 4 -12 1 -5 11 -39 23
-78 50 -162 66 -245 67 -335 0 -63 -11 -181 -18 -187 -9 -10 -26 9 -35 40 -5
18 -17 52 -26 77 -9 25 -18 52 -20 60 -9 46 -53 156 -93 235 -89 176 -267 458
-286 452 -12 -4 -15 -52 -16 -335 l-1 -214 89 -176 c49 -97 104 -201 121 -230
17 -29 31 -54 31 -56 0 -4 125 -215 171 -291 10 -16 27 -46 38 -66 11 -19 27
-41 35 -48 9 -8 16 -18 16 -23 0 -5 18 -36 40 -68 22 -32 40 -61 40 -64 0 -4
8 -14 18 -24 9 -10 29 -33 44 -52 15 -18 31 -31 34 -27 13 13 15 90 20 855 4
624 2 775 -8 786 -21 21 -201 217 -221 240 -10 12 -54 59 -97 106 -43 47 -88
97 -101 111 -13 14 -67 72 -119 129 -52 56 -103 112 -113 124 -15 17 -137 150
-192 210 -9 9 -203 222 -240 262 -19 20 -180 197 -205 224 -14 15 -63 69 -110
121 -100 110 -103 112 -201 220 -42 46 -89 98 -104 114 -15 17 -48 52 -73 80
-76 80 -144 169 -133 173 8 3 65 -31 81 -49 3 -3 39 -32 80 -65 41 -32 82 -66
90 -74 9 -8 37 -31 61 -51 24 -21 94 -79 155 -130 61 -52 134 -114 164 -139
29 -25 58 -50 64 -55 6 -6 56 -49 111 -95 55 -47 107 -92 116 -100 9 -8 30
-26 46 -40 37 -32 162 -142 177 -155 50 -45 111 -98 160 -140 32 -27 64 -55
70 -60 6 -6 37 -30 68 -54 55 -41 58 -42 85 -28 29 16 153 141 153 156 0 4
-43 50 -96 102 -183 178 -239 235 -319 324 -44 49 -87 96 -95 104 -8 9 -33 39
-55 66 -22 28 -44 55 -50 61 -5 6 -19 23 -30 38 -11 16 -25 33 -30 40 -28 30
-105 133 -105 139 0 4 -8 16 -17 26 -29 31 -35 40 -119 166 -79 120 -127 196
-129 205 0 3 -8 16 -17 30 -28 42 -103 183 -140 261 -32 68 -116 281 -122 311
-2 7 -5 20 -8 28 -29 86 -44 170 -30 170 5 0 16 -8 25 -18 19 -21 167 -289
167 -302 0 -6 5 -10 10 -10 6 0 10 -5 10 -11 0 -6 20 -45 45 -86 25 -40 45
-78 45 -83 0 -6 5 -10 10 -10 6 0 10 -5 10 -11 0 -33 360 -538 475 -665 5 -6
30 -36 55 -65 25 -30 113 -121 195 -204 146 -146 206 -202 385 -355 29 -25 62
-53 74 -63 11 -10 41 -36 66 -57 71 -60 177 -155 280 -250 15 -14 43 -39 61
-56 63 -57 159 -162 159 -172 0 -6 5 -12 11 -14 6 -2 13 -33 16 -68 4 -52 10
-69 30 -87 13 -13 32 -23 41 -24 45 -3 69 -6 78 -12 6 -3 16 -2 23 3 8 4 26 4
42 0 15 -5 30 -6 33 -3 2 3 52 6 110 8 58 2 110 7 116 10 8 5 39 97 44 130 6
50 167 218 392 412 423 364 678 603 871 815 54 60 224 274 251 317 9 15 19 28
22 31 3 3 33 45 65 95 33 49 64 94 68 100 17 22 97 146 97 150 0 2 13 23 29
47 32 48 64 104 112 193 17 33 34 62 38 65 3 3 22 37 41 75 54 109 93 175 103
175 14 0 1 -105 -22 -185 -24 -85 -78 -221 -132 -332 -21 -45 -39 -86 -39 -92
0 -5 -3 -11 -7 -13 -5 -1 -23 -32 -42 -68 -38 -72 -171 -292 -181 -300 -3 -3
-17 -23 -30 -45 -13 -22 -27 -42 -30 -45 -3 -3 -28 -36 -55 -75 -50 -72 -114
-156 -175 -229 -19 -24 -53 -65 -75 -91 -79 -97 -181 -206 -394 -424 -89 -91
-161 -171 -161 -179 0 -18 133 -148 159 -155 18 -4 75 29 117 68 10 9 92 80
157 135 16 14 44 39 63 55 29 27 70 63 154 135 85 74 146 127 162 143 10 9 22
17 27 17 5 0 11 4 13 9 2 4 41 41 88 81 47 40 101 86 122 104 20 17 55 47 79
66 23 19 47 40 53 45 6 6 38 33 71 60 33 28 65 55 71 60 6 6 30 26 54 45 24
19 54 44 66 55 23 21 63 53 129 104 22 17 45 35 52 41 7 5 17 10 23 10 5 0 10
5 10 12 0 6 3 9 6 5 11 -10 -1 -25 -171 -213 -11 -12 -47 -53 -80 -90 -33 -37
-69 -77 -80 -90 -11 -12 -49 -55 -85 -95 -36 -40 -78 -87 -95 -105 -16 -18
-57 -62 -90 -99 -33 -37 -79 -88 -103 -113 -23 -25 -66 -73 -96 -106 -30 -34
-64 -73 -77 -87 -13 -14 -64 -70 -114 -124 -49 -54 -111 -121 -137 -149 -25
-28 -57 -63 -70 -77 -47 -52 -194 -213 -218 -239 -14 -14 -63 -69 -110 -120
-100 -110 -108 -119 -210 -230 -43 -47 -101 -110 -129 -140 -28 -30 -51 -62
-52 -70 -1 -8 -1 -312 0 -675 0 -693 5 -915 18 -940 7 -12 17 -5 45 32 76 100
248 375 365 583 8 14 32 57 54 95 55 98 162 307 165 323 1 8 9 21 17 30 31 36
36 86 32 327 -3 243 -6 276 -18 275 -4 0 -10 0 -15 0 -4 0 -12 -9 -17 -19 -6
-11 -44 -73 -86 -138 -42 -65 -89 -139 -103 -163 -24 -41 -119 -228 -121 -240
-1 -3 -12 -39 -25 -80 -13 -41 -24 -77 -25 -80 -6 -28 -48 -141 -55 -145 -14
-9 -22 46 -25 166 -3 103 5 170 30 261 3 10 7 26 9 35 6 25 112 352 125 385 6
15 82 100 170 189 150 151 504 516 602 620 65 69 253 270 264 283 6 7 35 39
65 71 73 80 207 229 256 285 21 25 41 47 44 50 3 3 34 39 69 80 36 41 70 80
75 85 6 6 33 37 60 70 28 33 57 68 65 77 23 25 40 45 98 115 29 35 58 70 65
78 7 8 18 20 23 27 6 7 47 58 91 113 171 214 322 431 323 467 1 9 7 19 14 22
15 7 -101 -4 -120 -11 -11 -4 -12 1 -7 23 4 16 10 31 13 34 12 10 71 132 71
146 0 8 4 14 8 14 20 0 18 278 -3 435 -2 17 -7 57 -10 90 -3 33 -8 71 -10 85
-4 24 -21 134 -30 196 -6 36 -37 187 -60 289 -9 39 -18 79 -20 90 -3 11 -16
61 -30 110 -14 50 -28 99 -31 110 -8 30 -10 39 -17 55 -3 8 -13 38 -21 65 -17
61 -93 279 -111 320 -7 17 -31 75 -53 130 -22 55 -53 129 -68 165 -41 96 -213
433 -267 525 -27 44 -53 89 -60 100 -6 11 -24 39 -39 62 -15 23 -28 44 -28 46
0 3 -30 50 -67 104 -186 274 -377 505 -616 746 -131 132 -169 138 -87 12 11
-16 23 -37 27 -45 4 -8 21 -37 39 -65 82 -129 147 -299 159 -415 7 -68 -22
-51 -105 62 -93 127 -181 237 -240 302 -25 27 -54 59 -65 72 -137 154 -326
347 -373 380 -26 18 -31 16 -37 -15 -2 -11 -7 -26 -10 -32 -4 -5 -8 -20 -10
-32 -1 -12 -14 -78 -28 -147 -14 -69 -28 -141 -31 -160 -3 -19 -8 -46 -11 -60
-3 -14 -8 -57 -11 -96 -7 -82 -10 -78 106 -163 115 -84 194 -170 206 -223 19
-81 -1 -84 -89 -13 -37 30 -89 67 -115 82 -26 15 -49 30 -52 33 -11 14 -80 40
-104 40 -33 0 -47 -27 -48 -90 0 -69 7 -84 55 -110 81 -45 211 -158 328 -287
134 -149 287 -474 325 -693 2 -14 7 -36 9 -50 3 -14 8 -37 10 -52 3 -16 7 -39
9 -52 30 -170 19 -540 -20 -696 -3 -14 -8 -38 -11 -55 -2 -16 -16 -68 -29
-115 -14 -47 -26 -92 -28 -100 -8 -29 -54 -146 -82 -205 -116 -248 -333 -482
-555 -599 l-36 -19 -67 31 c-36 17 -66 28 -66 24 0 -4 -4 -2 -8 3 -4 6 -26 18
-49 28 -78 31 -150 57 -163 59 -3 0 -16 5 -30 10 -14 5 -33 12 -42 14 -10 2
-26 6 -35 8 -93 22 -113 26 -208 40 -104 16 -352 23 -440 12 -16 -2 -59 -7
-95 -11 -36 -4 -68 -9 -71 -11 -3 -2 -21 -6 -40 -9 -98 -17 -235 -57 -319 -92
-8 -3 -17 -7 -20 -8 -9 -3 -96 -43 -154 -70 -60 -28 -80 -27 -128 6 -14 11
-31 19 -36 19 -6 0 -12 3 -14 8 -1 4 -28 24 -59 45 -52 35 -202 175 -224 209
-5 9 -31 44 -57 77 -27 34 -48 63 -48 65 0 2 -17 33 -38 67 -44 73 -91 171
-117 244 -9 28 -20 57 -23 65 -7 19 -4 10 -31 120 -25 105 -25 106 -36 170 -4
25 -9 54 -11 65 -19 97 -25 430 -11 568 7 69 52 291 63 308 3 5 7 19 9 31 16
81 120 302 195 414 89 133 211 261 340 357 112 84 127 99 135 138 10 46 -4
107 -25 114 -32 10 -87 -11 -171 -65 -79 -49 -93 -60 -127 -90 -72 -64 -92
-69 -92 -24 0 69 74 159 217 265 86 64 111 90 108 114 -2 22 -17 128 -20 149
-21 135 -31 193 -40 236 -3 14 -7 41 -10 60 -12 89 -39 160 -60 160 -9 0 -73
-58 -143 -128z m414 -4245 c2 -17 7 -33 9 -37 2 -4 7 -22 10 -41 30 -175 121
-412 210 -545 25 -37 45 -68 45 -70 0 -8 57 -71 130 -144 144 -145 443 -349
510 -350 14 0 175 87 203 110 7 6 59 45 117 87 110 82 310 274 310 298 0 8 4
15 8 15 5 0 19 19 32 43 13 23 27 44 30 47 28 19 160 347 175 431 3 18 7 35 9
38 2 3 7 24 10 46 36 240 56 211 62 -95 3 -118 7 -224 9 -235 2 -11 4 -32 4
-47 1 -16 5 -28 9 -28 17 0 110 80 266 230 257 247 317 302 323 297 6 -6 -18
-56 -54 -114 -18 -29 -33 -57 -33 -63 0 -5 -5 -10 -10 -10 -6 0 -14 -10 -19
-22 -11 -29 -117 -173 -181 -248 -97 -114 -139 -159 -236 -255 -108 -107 -185
-178 -289 -265 -27 -23 -61 -52 -75 -63 -149 -126 -550 -404 -637 -442 l-42
-18 -53 28 c-74 38 -375 243 -483 328 -5 4 -48 37 -95 73 -225 175 -504 445
-656 634 -106 132 -300 440 -277 440 10 0 57 -43 276 -253 196 -188 191 -183
255 -236 59 -49 70 -46 73 19 1 19 3 58 4 85 1 28 3 129 5 225 2 96 5 181 8
189 6 15 29 -36 38 -82z"/>
</g>
</svg>
